<?xml version="1.0" encoding="UTF-8" standalone="no"?><!-- Generator: Gravit.io --><svg xmlns="http://www.w3.org/2000/svg" xmlns:xlink="http://www.w3.org/1999/xlink" style="isolation:isolate" viewBox="0 0 24 28.77" width="24pt" height="28.77pt"><defs><clipPath id="_clipPath_Hhv8t9r1frXUz9xPZQlRoSevYjAV5Ljw"><rect width="24" height="28.77"/></clipPath></defs><g clip-path="url(#_clipPath_Hhv8t9r1frXUz9xPZQlRoSevYjAV5Ljw)"><rect width="24" height="28.77" style="fill:rgb(0,0,0)" fill-opacity="0"/><g><g><path d=" M 4.8 21.57 C 4.8 22.29 5.28 22.77 6 22.77 L 7.2 22.77 L 7.2 26.97 C 7.2 27.93 8.04 28.77 9 28.77 C 9.96 28.77 10.8 27.93 10.8 26.97 L 10.8 22.77 L 13.2 22.77 L 13.2 26.97 C 13.2 27.93 14.04 28.77 15 28.77 C 15.96 28.77 16.8 27.93 16.8 26.97 L 16.8 22.77 L 18 22.77 C 18.72 22.77 19.2 22.29 19.2 21.57 L 19.2 9.57 L 4.8 9.57 L 4.8 21.57 L 4.8 21.57 Z  M 1.8 9.57 C 0.84 9.57 0 10.41 0 11.37 L 0 19.77 C 0 20.73 0.84 21.57 1.8 21.57 C 2.76 21.57 3.6 20.73 3.6 19.77 L 3.6 11.37 C 3.6 10.41 2.76 9.57 1.8 9.57 Z  M 22.2 9.57 C 21.24 9.57 20.4 10.41 20.4 11.37 L 20.4 19.77 C 20.4 20.73 21.24 21.57 22.2 21.57 C 23.16 21.57 24 20.73 24 19.77 L 24 11.37 C 24 10.41 23.16 9.57 22.2 9.57 Z  M 16.2 2.61 L 17.76 1.05 C 18 0.81 18 0.45 17.76 0.21 C 17.52 -0.03 17.16 -0.03 16.92 0.21 L 15.12 2.01 C 14.28 1.41 13.2 1.17 12 1.17 C 10.8 1.17 9.72 1.41 8.76 1.89 L 7.08 0.09 C 6.84 -0.03 6.36 -0.03 6.12 0.09 C 6 0.33 6 0.81 6.12 1.05 L 7.68 2.61 C 6 3.93 4.8 5.97 4.8 8.37 L 19.2 8.37 C 19.2 5.97 18 3.81 16.2 2.61 Z  M 9.6 5.97 L 8.4 5.97 L 8.4 4.77 L 9.6 4.77 L 9.6 5.97 Z  M 15.6 5.97 L 14.4 5.97 L 14.4 4.77 L 15.6 4.77 L 15.6 5.97 Z " fill="rgb(197,197,197)"/></g></g></g></svg>