<?xml version="1.0" encoding="UTF-8" standalone="no"?><!-- Generator: Gravit.io --><svg xmlns="http://www.w3.org/2000/svg" xmlns:xlink="http://www.w3.org/1999/xlink" style="isolation:isolate" viewBox="0 0 26 35" width="26pt" height="35pt"><defs><clipPath id="_clipPath_2eExpjySKGlLG1W44YyBnQ1rUatMWHeG"><rect width="26" height="35"/></clipPath></defs><g clip-path="url(#_clipPath_2eExpjySKGlLG1W44YyBnQ1rUatMWHeG)"><g><g><path d=" M 21.045 17.661 C 21.006 13.925 24.09 12.138 24.227 12.048 C 22.495 9.517 19.8 9.169 18.837 9.131 C 16.545 8.896 14.36 10.481 13.194 10.481 C 12.032 10.481 10.234 9.163 8.331 9.197 C 5.828 9.236 3.524 10.654 2.234 12.892 C -0.365 17.402 1.568 24.082 4.101 27.745 C 5.339 29.535 6.817 31.544 8.754 31.474 C 10.621 31.399 11.326 30.265 13.583 30.265 C 15.84 30.265 16.475 31.474 18.448 31.438 C 20.458 31.399 21.728 29.612 22.956 27.818 C 24.379 25.74 24.964 23.726 25 23.625 C 24.953 23.6 21.085 22.12 21.045 17.661 Z " fill="rgb(197,197,197)"/><path d=" M 17.333 6.707 C 18.36 5.462 19.057 3.728 18.866 2 C 17.382 2.06 15.59 2.985 14.525 4.232 C 13.57 5.336 12.739 7.098 12.961 8.791 C 14.614 8.922 16.306 7.95 17.333 6.707 Z " fill="rgb(197,197,197)"/></g></g></g></svg>